<?xml version="1.0" standalone="no"?><!DOCTYPE svg PUBLIC "-//W3C//DTD SVG 1.1//EN" "http://www.w3.org/Graphics/SVG/1.1/DTD/svg11.dtd"><svg t="1720541626388" class="icon" viewBox="0 0 1024 1024" version="1.1" xmlns="http://www.w3.org/2000/svg" p-id="12092" xmlns:xlink="http://www.w3.org/1999/xlink" width="16" height="16"><path d="M762.995 125.511l8.673 5.009c50.196 29.018 67.4 93.221 38.437 143.45L652.083 547.749c-28.967 50.237-93.182 67.451-143.406 38.463-0.007-0.005-0.014-0.009-0.01-0.035l-8.672-5.009c-50.196-29.018-67.4-93.222-38.437-143.45L619.58 163.939c28.966-50.237 93.181-67.452 143.406-38.463 0.007 0.004 0.014 0.009 0.009 0.035z" fill="#7EDEC6" p-id="12093"></path><path d="M873 398c21.54 0 39 17.46 39 39v39h-0.314c0.209 5.308 0.314 10.642 0.314 16 0 158.797-92.534 295.982-226.623 360.575A48.098 48.098 0 0 1 687 865c0 26.51-21.49 48-48 48H385c-26.51 0-48-21.49-48-48 0-4.299 0.565-8.466 1.625-12.43C204.535 787.982 112 650.797 112 492c0-5.358 0.105-10.692 0.314-16H112v-39c0-21.54 17.46-39 39-39h722z m-77.775 118.468c-10.826-2.366-21.526 4.467-23.9 15.263-13.994 63.661-46.475 113.358-97.913 149.966-9.022 6.42-11.115 18.918-4.677 27.915 6.438 8.996 18.97 11.084 27.992 4.664 59.604-42.42 97.696-100.703 113.803-173.975 2.374-10.796-4.479-21.466-15.305-23.833z" fill="#03AD82" p-id="12094"></path></svg>